<?xml version="1.0" encoding="utf-8"?>
<!-- Generator: Adobe Illustrator 18.1.1, SVG Export Plug-In . SVG Version: 6.00 Build 0)  -->
<!DOCTYPE svg PUBLIC "-//W3C//DTD SVG 1.1//EN" "http://www.w3.org/Graphics/SVG/1.1/DTD/svg11.dtd">
<svg xmlns="http://www.w3.org/2000/svg" xmlns:xlink="http://www.w3.org/1999/xlink" version="1.1" id="Layer_1" x="0px" y="0px" width="64px" height="58px" viewBox="-647 372 64 58" xml:space="preserve">
<path fill="#F4E4CB" d="M-615,383c-20.038,0-32,5.233-32,14v16c0,3.309,2.691,6,6,6h52c3.309,0,6-2.691,6-6v-16  C-583,388.233-594.963,383-615,383z M-585,413c0,2.206-1.794,4-4,4h-52c-2.206,0-4-1.794-4-4v-16c0-3.605,2.884-6.578,8-8.663V394  c0,0.552,0.448,1,1,1s1-0.448,1-1v-6.396c1.517-0.499,3.185-0.934,5-1.296V396c0,0.552,0.448,1,1,1s1-0.448,1-1v-10.048  c1.577-0.256,3.243-0.465,5-0.619V399c0,0.552,0.448,1,1,1s1-0.448,1-1v-13.815c1.603-0.101,3.271-0.161,5-0.177V404  c0,0.552,0.448,1,1,1s1-0.448,1-1v-18.992c1.729,0.017,3.397,0.076,5,0.177V399c0,0.552,0.448,1,1,1s1-0.448,1-1v-13.667  c1.757,0.154,3.423,0.363,5,0.619V396c0,0.552,0.447,1,1,1s1-0.448,1-1v-9.691c1.845,0.368,3.538,0.811,5.075,1.321  c-0.046,0.115-0.075,0.239-0.075,0.37v6c0,0.552,0.447,1,1,1s1-0.448,1-1v-5.664c5.116,2.086,8,5.058,8,8.664V413z"/>
</svg>
