<?xml version="1.0" encoding="utf-8"?>
<!-- Generator: Adobe Illustrator 18.1.1, SVG Export Plug-In . SVG Version: 6.00 Build 0)  -->
<!DOCTYPE svg PUBLIC "-//W3C//DTD SVG 1.1//EN" "http://www.w3.org/Graphics/SVG/1.1/DTD/svg11.dtd">
<svg xmlns="http://www.w3.org/2000/svg" xmlns:xlink="http://www.w3.org/1999/xlink" version="1.1" id="Layer_1" x="0px" y="0px" width="58px" height="58px" viewBox="0 0 58 58" xml:space="preserve">
<g>
	<path fill="#F4E4CB" d="M46,28h-5.051C40.438,21.851,35.279,17,29,17c-6.617,0-12,5.383-12,12s5.383,12,12,12   c6.279,0,11.438-4.851,11.949-11H46c0.553,0,1-0.448,1-1S46.553,28,46,28z M29,39c-5.514,0-10-4.486-10-10s4.486-10,10-10   s10,4.486,10,10S34.514,39,29,39z"/>
	<path fill="#F4E4CB" d="M29,0C13.009,0,0,13.009,0,29s13.009,29,29,29c15.99,0,29-13.009,29-29S44.99,0,29,0z M29,56   C14.112,56,2,43.888,2,29S14.112,2,29,2s27,12.112,27,27S43.888,56,29,56z"/>
</g>
</svg>
