<?xml version="1.0" encoding="UTF-8"?>
<!-- Generator: Adobe Illustrator 18.1.1, SVG Export Plug-In . SVG Version: 6.00 Build 0)  -->
<!DOCTYPE svg PUBLIC "-//W3C//DTD SVG 1.1//EN" "http://www.w3.org/Graphics/SVG/1.1/DTD/svg11.dtd">
<svg xmlns="http://www.w3.org/2000/svg" xmlns:xlink="http://www.w3.org/1999/xlink" version="1.1" id="Layer_1" x="0px" y="0px" width="1360px" height="800px" viewBox="0 0 1360 800" xml:space="preserve">
<g opacity="0.85">
	<path fill="#2D333D" d="M0,0v800h1360V0H0z M543.595,493.058c1.188-1.401,2.771-2.1,4.756-2.1c4.072,0,6.11,2.001,6.11,6.007   c0,2.48-0.611,4.368-1.833,5.663c-1.222,1.295-2.789,1.94-4.701,1.94c-4.073,0-6.11-1.986-6.11-5.954   C541.816,496.309,542.408,494.459,543.595,493.058z M518,525.767c0,13.895-3.968,25.425-11.866,34.517   C498.237,569.375,487.662,574,474.451,574H442.01c-0.846,0-1.503-0.748-1.515-1.572c-0.007-0.124-0.001-0.249,0.022-0.373   l0.285-1.679c0.134-0.72,0.761-1.377,1.493-1.377h0.172c6.023,0,9.582-2.47,10.679-7.681l11.317-53.309   c0.282-1.337,0.422-2.154,0.424-2.823c-0.01-2.894-2.631-4.187-7.862-4.187h-1.382l0.704-3.578   c0.147-0.704,0.768-1.422,1.487-1.422h29.262c9.882,0,17.517,2.617,22.864,7.74c5.346,5.123,8.04,12.501,8.04,21.999   c0,0.005,0,0.01,0,0.014C518,525.758,518,525.763,518,525.767z M554.28,569.032c-0.064,0.079-0.115,0.166-0.197,0.232   c-4.674,3.762-9.242,5.641-13.701,5.641c-2.691,0-5.044-0.972-6.71-2.923c-1.666-1.948-2.671-4.413-2.671-7.39   c0-0.001,0,0.408,0,0.408h0.175c0-4,0.903-9.174,2.531-17.327l4.241-20.097c0.247-1.17,0.394-2.188,0.394-2.933   c0-3.049-2.191-4.643-6.619-4.643h-1.435l0.704-3.577c0.147-0.704,0.768-1.423,1.487-1.423h16.391c0.965,0,1.686,1.123,1.486,2.068   l-6.998,33.381c-1.092,5.188-1.641,9.196-1.646,12.03c0.005,3.673,1.206,5.538,3.612,5.538c1.808,0,3.998-0.686,6.572-2.091   c0.703-0.384,1.589-0.137,2.009,0.546l0.502,0.819c0.199,0.322,0.266,0.697,0.209,1.05   C554.574,568.597,554.447,568.827,554.28,569.032z M613.753,525.037c0,6.593-2.505,14.309-7.518,23.154   c-4.932,8.702-11.327,17.084-19.191,25.15c-0.248,0.255-0.581,0.417-0.934,0.455l-7.786,0.847   c-0.807,0.088-1.541-0.475-1.665-1.278l-7.375-47.549c-0.603-3.862-3.116-5.815-7.544-5.815h-1.063l0.619-3.544   c0.134-0.72,0.762-1.456,1.493-1.456h13.749c0.748,0,1.385,0.779,1.501,1.518l4.846,31.058c1.275,8.222,2.106,14.424,2.497,19.424   h0.319c5.419-5,10.114-11.306,14.079-18.27c3.966-6.964,5.951-12.561,5.951-16.78c0-2.55-0.619-4.572-1.86-6.06   c-0.945-1.133-2.113-1.836-3.508-2.107c-0.695-0.135-1.237-0.682-1.298-1.355c-0.009-0.096-0.008-0.195,0.004-0.295   c0.228-1.93,0.908-3.531,2.039-4.805c1.416-1.595,3.169-2.392,5.26-2.392C611.291,514.935,613.753,518.303,613.753,525.037   C613.753,525.036,613.753,525.036,613.753,525.037C613.753,525.036,613.753,525.036,613.753,525.037z M650.282,569.032   c-0.064,0.079-0.115,0.166-0.197,0.232c-4.674,3.762-9.242,5.641-13.702,5.641c-2.691,0-5.044-0.972-6.71-2.923   c-1.666-1.948-2.673-4.413-2.673-7.39c0-0.001,0,0.408,0,0.408h0.175c0-4,0.904-9.174,2.532-17.327l4.241-20.097   c0.246-1.17,0.394-2.188,0.394-2.933c0-3.049-2.191-4.643-6.619-4.643h-1.435l0.703-3.577c0.147-0.705,0.768-1.423,1.487-1.423   h16.391c0.965,0,1.686,1.123,1.486,2.068l-6.998,33.381c-1.092,5.188-1.641,9.196-1.646,12.03c0.005,3.673,1.207,5.538,3.612,5.538   c1.807,0,3.998-0.686,6.571-2.091c0.703-0.384,1.588-0.137,2.009,0.546l0.503,0.819c0.199,0.322,0.265,0.697,0.209,1.05   C650.576,568.597,650.449,568.827,650.282,569.032z M637.818,498.614c0-2.305,0.592-4.155,1.78-5.556   c1.188-1.401,2.77-2.1,4.755-2.1c4.072,0,6.11,2.001,6.11,6.007c0,2.48-0.611,4.368-1.833,5.663   c-1.222,1.295-2.789,1.94-4.702,1.94C639.855,504.568,637.818,502.582,637.818,498.614z M677.406,455.597   c-4.996-3.754-11.671-4.421-17.313-1.729c-7.593,3.622-16.7,1.065-21.287-5.978c-3.409-5.234-9.452-8.139-15.677-7.536   c-8.376,0.811-16.057-4.701-17.955-12.885c-1.41-6.082-6.094-10.875-12.149-12.433c-8.149-2.097-13.479-9.899-12.457-18.238h0   c0.759-6.197-2-12.299-7.157-15.831c-6.939-4.753-9.274-13.904-5.457-21.391c2.836-5.564,2.335-12.241-1.301-17.32   c-4.892-6.835-3.951-16.231,2.201-21.963c4.572-4.26,6.388-10.705,4.712-16.719h0c-2.255-8.093,1.849-16.601,9.594-19.888   c5.756-2.442,9.671-7.878,10.157-14.102c0.654-8.375,7.426-14.968,15.83-15.413h0c6.245-0.33,11.787-4.102,14.376-9.784   c3.484-7.647,12.107-11.531,20.156-9.079c5.982,1.822,12.482,0.17,16.862-4.286c5.894-5.996,15.328-6.702,22.051-1.65v0   c4.996,3.755,11.671,4.421,17.313,1.729c7.593-3.622,16.7-1.065,21.287,5.978c3.409,5.234,9.452,8.138,15.677,7.536   c8.376-0.812,16.058,4.7,17.955,12.884c1.41,6.082,6.094,10.875,12.15,12.434c8.149,2.097,13.478,9.899,12.457,18.237h0   c-0.759,6.196,2,12.299,7.157,15.831c6.939,4.753,9.274,13.904,5.457,21.39c-2.836,5.564-2.335,12.241,1.301,17.32   c4.892,6.835,3.951,16.231-2.201,21.964c-4.572,4.26-6.388,10.705-4.712,16.719h0c2.255,8.093-1.849,16.601-9.594,19.887   c-5.756,2.442-9.671,7.879-10.157,14.103c-0.654,8.375-7.426,14.968-15.83,15.412h0c-6.245,0.33-11.787,4.102-14.376,9.784   c-3.484,7.647-12.107,11.531-20.156,9.079c-5.982-1.822-12.482-0.17-16.862,4.286C693.563,459.944,684.13,460.65,677.406,455.597z    M752.95,513.287c-1.613,1.259-3.657,1.999-6.141,2.217c-0.857,0.076-1.612-0.592-1.647-1.452   c-0.362-8.841-3.964-13.259-10.808-13.259c-8.964,0-16.463,4.884-22.496,14.647c-6.042,9.764-9.063,20.443-9.063,32.032   c0,13.576,6.444,20.362,19.339,20.362c7.688,0,13.963-2.764,18.829-8.293c0.826-0.938,2.396-0.553,2.627,0.675   c0.076,0.406,0.115,0.854,0.115,1.345c0,3.475-2.019,6.566-6.057,9.277c-4.038,2.711-9.601,4.067-16.683,4.067   c-9.457,0-16.834-2.533-22.132-7.603c-5.29-5.07-7.939-12.246-7.939-21.532c0-13.75,4.288-25.651,12.857-35.7   c8.569-10.048,19.233-15.073,31.984-15.073c6.337,0,11.279,1.091,14.823,3.27c3.545,2.18,5.313,5.131,5.313,8.852   C755.871,509.706,754.9,511.764,752.95,513.287z M794.31,566.756c-0.022-0.354-0.033-0.719-0.033-1.096   c0-2.305,0.372-4.66,1.116-8.66h-0.691c-5.206,12-11.991,17.7-20.348,17.7c-4.425,0-8.035-1.538-10.501-5.028   c-2.459-3.49-3.852-8.37-3.852-14.644c0-0.011,0-0.022,0-0.033c0-0.009,0-0.017,0-0.026c0-9.995,3.275-19.239,9.484-27.779   c6.224-8.541,13.994-12.8,23.17-12.8c4.568,0,8.596,1.134,12.002,3.39c0.49,0.324,1.135,0.367,1.643,0.073l3.607-1.864   c0.231-0.134,0.503,0.011,0.77,0.011h1.222c0.966,0,1.687,0.678,1.485,1.624l-7.046,32.932c-1.058,4.979-1.589,8.935-1.593,11.979   c0.004,3.675,1.188,5.512,3.559,5.512c1.784,0,3.989-0.705,6.621-2.117c0.705-0.378,1.587-0.142,2.007,0.539l0.497,0.806   c0.201,0.327,0.267,0.693,0.206,1.036c-0.055,0.366-0.239,0.71-0.549,0.951c-4.846,3.764-9.612,5.54-14.307,5.54   C797.462,574.803,794.642,572.064,794.31,566.756z M859.872,517.113l-0.597,3.492c-0.135,0.719-0.762,1.395-1.493,1.395h-9.731   c-0.358,0-0.692,0.086-0.955,0.26s-0.455,0.436-0.53,0.786l-0.009,0.04l-11.052,51.684c-1.875,8.757-4.622,15.12-8.235,19.176   c-3.613,4.063-8.729,6.072-15.355,6.072c-1.584,0-3.195-0.19-4.839-0.547c-0.72-0.156-1.223-0.787-1.225-1.496   c0-0.101,0.009-0.204,0.03-0.308l0.205-1.013l0.205-1.016c0.166-0.823,0.972-1.353,1.793-1.183   c1.243,0.257,2.413,0.387,3.512,0.387c3.506,0,6.269-1.504,8.288-4.519c2.018-3.015,3.826-8.188,5.419-15.524l11.019-51.076   l0.009-0.04c0.025-0.118,0.036-0.233,0.034-0.344c-0.006-0.332-0.131-0.626-0.338-0.853c-0.138-0.151-0.312-0.273-0.513-0.357   c-0.201-0.084-0.427-0.13-0.669-0.13h-6.217c-0.936,0-1.649-0.995-1.499-1.919l0.186-1.306c0.1-0.616,0.566-1.109,1.176-1.242   l8.482-1.852c0.591-0.129,1.05-0.598,1.167-1.192l0.977-4.976c2.55-13.006,9.442-19.512,20.668-19.512   c4.637,0,8.23,0.736,10.59,2.206c2.353,1.47,3.623,3.427,3.623,5.873c0,0.001,0,0.002,0,0.003c0,0.001,0,0.001,0,0.002   c0,4.277-2.576,6.614-7.532,7.01c-0.849,0.068-1.635-0.602-1.674-1.453c-0.264-5.762-2.12-8.641-5.516-8.641   c-2.656,0-4.732,1.098-6.197,3.296c-1.473,2.199-2.64,5.602-3.49,10.207l-1.061,4.905c-0.194,0.943,0.523,1.593,1.485,1.593h8.365   c0.849,0,1.507,0.875,1.515,1.728C859.901,516.858,859.896,516.988,859.872,517.113z M900.036,542.361   c-6.117,4.36-13.579,6.639-22.399,6.639h-1.859c-0.18,0-0.372-0.101-0.555-0.107c-0.812-0.021-1.505,0.547-1.552,1.359   c-0.048,0.839-0.072,1.836-0.072,3.04c0,8.612,3.044,13.449,9.13,14.532c0.854,0.147,1.765,0.223,2.738,0.223   c5.485,0,10.119-2.039,14.078-6.117c0.938-0.966,2.454-0.375,2.454,0.972c0,0.013,0,0.027,0,0.04c0,2.906-1.536,5.628-4.959,8.161   c-3.416,2.532-7.821,3.801-13.559,3.801c-0.012,0-0.023-0.001-0.035-0.001c-0.017,0-0.033,0.001-0.05,0.001   c-6.337,0-11.418-2.001-15.312-6.008c-3.894-4.006-5.823-9.497-5.823-16.482c0-9.497,3.078-18.41,9.203-26.331   c6.124-7.922,13.872-12.085,23.223-12.085c0.001,0,0.002,0,0.003,0c0.001,0,0.002,0,0.003,0c4.607,0,8.174,1.299,10.701,3.499   c2.535,2.198,3.803,5.413,3.803,9.347C909.197,532.728,906.138,538.002,900.036,542.361z M913.276,491.016   c-0.062,0.218-0.172,0.651-0.32,0.823c-5.408,6.255-11.507,11.564-18.31,15.856c-0.164,0.103-0.348,0.186-0.537,0.242   c-0.095,0.036-0.192,0.063-0.289,0.063h-3.91l0.237-1.191c0.053-0.24,0.164-0.582,0.325-0.769   c3.885-4.516,7.534-9.624,10.949-15.11c0.276-0.443,0.76-0.93,1.282-0.93H913.5L913.276,491.016z"/>
	<path fill="#2D333D" d="M638,562.46c0,0.007,0,0.013,0,0.02c0-2.835,0.41-6.843,1.502-12.03l6.926-33.381l-6.889,33.265   C638.442,555.543,638,559.623,638,562.46z"/>
	<path fill="#2D333D" d="M650.616,568.342c-0.041,0.255-0.168,0.485-0.334,0.69C650.449,568.827,650.576,568.597,650.616,568.342z"/>
	<path fill="#2D333D" d="M633.992,527.483c0.246-1.17,0.372-2.147,0.372-2.891c0,0.744-0.126,1.711-0.372,2.881l-4.197,19.995   c-1.628,8.153-2.444,13.859-2.444,17.122c0,0,0,0,0,0.001c0-3.263,0.816-8.966,2.444-17.118L633.992,527.483z"/>
	<path fill="#2D333D" d="M606.368,514.935c-2.091,0-3.844,0.797-5.26,2.392c-1.13,1.274-1.811,2.875-2.039,4.805   c-0.012,0.1-0.013,0.199-0.004,0.295c-0.009-0.096-0.008-0.195,0.004-0.295c0.228-1.93,0.908-3.531,2.039-4.805   C602.524,515.733,604.278,514.935,606.368,514.935c4.922,0,7.385,3.368,7.385,10.101c0,0,0,0,0,0   C613.753,518.303,611.291,514.935,606.368,514.935z"/>
	<path fill="#2D333D" d="M606,531.95c0,4.219-1.985,9.816-5.951,16.78c3.966-6.965,5.951-12.558,5.951-16.778   C606,531.951,606,531.951,606,531.95z"/>
	<path fill="#2D333D" d="M518,525.767c0-0.005,0-0.01,0-0.014c0,13.888-3.953,25.443-11.848,34.531   C514.049,551.193,518,539.662,518,525.767z"/>
	<path fill="#2D333D" d="M440.802,570.416c0.134-0.72,0.761-1.416,1.493-1.416c-0.732,0-1.359,0.657-1.493,1.377l-0.285,1.679   c-0.023,0.124-0.028,0.249-0.022,0.373c-0.001-0.101,0.003-0.203,0.022-0.305L440.802,570.416z"/>
	<path fill="#2D333D" d="M457.137,501c5.231,0,7.863,1.294,7.863,4.187c0-0.006,0-0.013,0-0.018   C465,502.264,462.378,501,457.137,501z"/>
	<path fill="#2D333D" d="M537.99,527.483c0.247-1.17,0.372-2.147,0.372-2.891c0,0.744-0.125,1.711-0.372,2.881l-4.197,19.995   c-1.628,8.153-2.444,13.859-2.444,17.122c0,0,0,0,0,0.001c0-3.263,0.816-8.966,2.444-17.118L537.99,527.483z"/>
	<path fill="#2D333D" d="M542,562.46c0,0.007,0,0.013,0,0.02c0-2.835,0.409-6.842,1.501-12.03l6.926-33.381l-6.889,33.265   C542.441,555.543,542,559.623,542,562.46z"/>
	<path fill="#2D333D" d="M554.614,568.342c-0.041,0.255-0.168,0.485-0.334,0.69C554.447,568.827,554.574,568.597,554.614,568.342z"/>
	<path fill="#2D333D" d="M890.472,506.18c3.885-4.516,7.534-9.748,10.949-15.233c0.276-0.443,0.76-0.947,1.282-0.947   c-0.522,0-1.006,0.487-1.282,0.93c-3.415,5.486-7.064,10.594-10.949,15.11c-0.16,0.187-0.271,0.529-0.325,0.769L889.91,508   l0.237-1.138C890.201,506.622,890.312,506.367,890.472,506.18z"/>
	<path fill="#2D333D" d="M912.956,491.698c-5.408,6.255-11.507,11.651-18.31,15.943c-0.164,0.104-0.347,0.224-0.537,0.295   c0.189-0.056,0.373-0.139,0.537-0.242c6.803-4.292,12.902-9.601,18.31-15.856c0.148-0.172,0.258-0.605,0.32-0.823L913.5,490   l-0.224,0.999C913.214,491.217,913.104,491.527,912.956,491.698z"/>
	<path fill="#2D333D" d="M875.223,548.893c0.183,0.006,0.375,0.107,0.555,0.107c-0.181,0-0.363-0.102-0.547-0.107   C875.229,548.893,875.226,548.893,875.223,548.893z"/>
	<path fill="#2D333D" d="M905.394,517.499c-2.528-2.199-6.095-3.499-10.701-3.499c-0.001,0-0.002,0-0.003,0   c4.605,0,8.175,1.3,10.702,3.499c2.535,2.198,3.804,5.413,3.804,9.347c0,5.882-3.058,11.105-9.16,15.465   c6.102-4.36,9.161-9.608,9.161-15.49C909.197,522.887,907.929,519.697,905.394,517.499z"/>
	<path fill="#2D333D" d="M899.546,561.937c0.938-0.966,2.454-0.381,2.454,0.966c0-1.347-1.516-1.938-2.454-0.972   c-3.959,4.077-8.593,6.117-14.078,6.117c-0.974,0-1.885-0.076-2.738-0.223c0.878,0.156,1.819,0.235,2.824,0.235   C891.039,568.06,895.588,566.014,899.546,561.937z"/>
	<path fill="#2D333D" d="M883.482,574.905c5.738,0,10.143-1.269,13.559-3.801c-3.406,2.525-7.881,3.792-13.594,3.799   C883.459,574.904,883.47,574.905,883.482,574.905z"/>
	<path fill="#2D333D" d="M836.367,523.34c0.002,0.111-0.009,0.226-0.034,0.344l-0.009,0.04l0.009-0.04   C836.358,523.565,836.369,523.45,836.367,523.34z"/>
	<path fill="#2D333D" d="M806.087,596.655l-0.205,1.013c-0.021,0.104-0.031,0.207-0.03,0.308c0-0.101,0.009-0.203,0.03-0.306   L806.087,596.655z"/>
	<path fill="#2D333D" d="M828.493,517.572l8.482-1.872c0.591-0.129,1.05-0.607,1.167-1.202l0.977-4.981   c2.55-13.006,9.442-19.514,20.668-19.514c4.637,0,8.23,0.736,10.59,2.205c2.353,1.47,3.623,3.428,3.623,5.873   c0-0.001,0-0.002,0-0.003c0-2.446-1.27-4.403-3.623-5.873c-2.36-1.469-5.906-2.206-10.543-2.206   c-11.226,0-18.141,6.506-20.691,19.512l-0.988,4.976c-0.117,0.595-0.581,1.063-1.173,1.192l-8.485,1.852   c-0.609,0.133-1.077,0.626-1.177,1.242l-0.187,1.306l0.186-1.228C827.418,518.236,827.884,517.705,828.493,517.572z"/>
	<path fill="#2D333D" d="M846.566,523.046l-0.009,0.04L846.566,523.046c0.075-0.351,0.267-0.612,0.53-0.786   C846.833,522.434,846.641,522.696,846.566,523.046z"/>
	<path fill="#2D333D" d="M859.275,520.488c-0.135,0.719-0.762,1.512-1.493,1.512c0.731,0,1.358-0.677,1.493-1.395l0.597-3.492   c0.023-0.125,0.029-0.254,0.022-0.385c0.001,0.103-0.003,0.206-0.022,0.307L859.275,520.488z"/>
	<path fill="#2D333D" d="M774.354,574.698c-4.425,0-8.035-1.643-10.502-5.133c-2.456-3.485-3.852-8.309-3.852-14.57   c0,0.011,0,0.022,0,0.033c0,6.273,1.393,11.154,3.852,14.644c2.467,3.49,5.994,5.028,10.42,5.028c8.357,0,15.183-5.7,20.389-17.7   C789.454,569,782.71,574.698,774.354,574.698z"/>
	<path fill="#2D333D" d="M808.431,568.074c1.784,0,3.924-0.719,6.557-2.131c0.705-0.378,1.555-0.148,1.975,0.533l0.481,0.802   c0.196,0.318,0.251,0.685,0.198,1.033c0.061-0.343-0.009-0.709-0.21-1.036l-0.499-0.806c-0.42-0.681-1.303-0.918-2.008-0.539   c-2.632,1.412-4.71,2.117-6.494,2.117c-2.371,0-3.431-1.837-3.431-5.512c0,0.012,0,0.024,0,0.036   C805,566.259,806.056,568.074,808.431,568.074z"/>
	<path fill="#2D333D" d="M453.146,561.358l11.373-53.203c0.285-1.349,0.481-2.281,0.481-2.953c0-0.005,0-0.01,0-0.015   c0,0.669-0.199,1.486-0.481,2.823l-11.345,53.309c-1.097,5.211-4.671,7.681-10.693,7.681   C448.504,569,452.049,566.569,453.146,561.358z"/>
	<path fill="#2D333D" d="M440.495,572.428c0.012,0.824,0.669,1.572,1.515,1.572C441.186,574,440.539,573.24,440.495,572.428z"/>
	<path fill="#2D333D" d="M509.96,503.74c-5.347-5.123-12.973-7.74-22.855-7.74c9.882,0,17.512,2.637,22.86,7.76   c5.344,5.12,8.036,12.503,8.036,21.993c0-0.005,0-0.01,0-0.014C518,516.241,515.306,508.863,509.96,503.74z"/>
	<path fill="#2D333D" d="M476.586,502.972c0.15-0.702,0.769-0.972,1.485-0.972c-0.717,0-1.336,0.192-1.485,0.893l-13.591,63.426   c-0.029,0.135-0.034,0.264-0.027,0.389c0.002-0.089,0.007-0.178,0.027-0.274L476.586,502.972z"/>
	<path fill="#2D333D" d="M554.406,567.292l-0.502-0.819c-0.42-0.682-1.306-0.929-2.009-0.546c-2.573,1.404-4.619,2.091-6.427,2.091   c-2.406,0-3.467-1.865-3.467-5.538c0,0.012,0,0.026,0,0.038c0,3.687,1.057,5.529,3.467,5.529c1.808,0,3.926-0.701,6.499-2.106   c0.703-0.384,1.552-0.144,1.973,0.538l0.484,0.815c0.198,0.322,0.256,0.695,0.2,1.047   C554.68,567.988,554.604,567.614,554.406,567.292z"/>
	<path fill="#2D333D" d="M540.382,574.905c-2.691,0-5.044-0.973-6.71-2.924c-1.665-1.948-2.671-4.414-2.671-7.391   c0,0.001,0,0.001,0,0.002c0,2.977,1.006,5.442,2.671,7.39c1.666,1.951,3.932,2.923,6.623,2.923c4.459,0,9.071-1.879,13.745-5.641   c0.082-0.066,0.155-0.153,0.219-0.232c-0.064,0.079-0.104,0.166-0.186,0.232C549.398,573.026,544.841,574.905,540.382,574.905z"/>
	<path fill="#2D333D" d="M587.045,573.339c-0.248,0.255-0.581,0.415-0.934,0.454l-7.786,0.845c-0.807,0.088-1.541-0.48-1.665-1.283   l-7.375-47.54l7.375,47.549c0.125,0.803,0.858,1.366,1.665,1.278l7.786-0.847c0.353-0.039,0.686-0.2,0.934-0.455   c7.864-8.065,14.259-16.448,19.191-25.15c5.013-8.845,7.518-16.561,7.518-23.154c0,0,0,0,0,0c0,6.593-2.505,14.309-7.518,23.153   C601.303,556.892,594.908,565.273,587.045,573.339z"/>
	<path fill="#2D333D" d="M604.006,525.888c-0.945-1.133-2.18-1.835-3.575-2.106c-0.694-0.135-1.27-0.681-1.331-1.354   c0.061,0.673,0.586,1.22,1.281,1.355c1.395,0.271,2.689,0.974,3.634,2.107c1.241,1.488,1.986,3.51,1.986,6.06c0,0,0-0.001,0-0.001   C606,529.397,605.247,527.376,604.006,525.888z"/>
	<path fill="#2D333D" d="M578.039,516.522l4.846,31.171c1.275,8.222,2.106,14.307,2.497,19.307c-0.391-5-1.222-11.202-2.497-19.424   l-4.846-31.058c-0.116-0.739-0.753-1.518-1.501-1.518C577.286,515,577.923,515.783,578.039,516.522z"/>
	<path fill="#2D333D" d="M650.407,567.292l-0.503-0.819c-0.421-0.682-1.306-0.929-2.009-0.546c-2.573,1.404-4.62,2.091-6.427,2.091   c-2.405,0-3.468-1.865-3.468-5.538c0,0.012,0,0.026,0,0.038c0,3.687,1.059,5.529,3.469,5.529c1.807,0,3.926-0.701,6.499-2.106   c0.703-0.384,1.552-0.144,1.973,0.538l0.485,0.815c0.198,0.322,0.256,0.695,0.2,1.047   C650.682,567.988,650.606,567.614,650.407,567.292z"/>
	<path fill="#2D333D" d="M636.383,574.905c-2.691,0-5.044-0.973-6.71-2.924c-1.666-1.948-2.673-4.414-2.673-7.391   c0,0.001,0,0.001,0,0.002c0,2.977,1.006,5.442,2.673,7.39c1.666,1.951,3.932,2.923,6.623,2.923c4.46,0,9.072-1.879,13.746-5.641   c0.082-0.066,0.155-0.153,0.219-0.232c-0.064,0.079-0.104,0.166-0.186,0.232C645.4,573.026,640.843,574.905,636.383,574.905z"/>
	<path fill="#2D333D" d="M805,562.518c0,0.006,0,0.011,0,0.018c0-3.045,0.407-7,1.465-11.979l6.982-32.932l-6.95,32.826   C805.435,555.448,805,559.469,805,562.518z"/>
	<path fill="#2D333D" d="M792.736,514.43c4.568,0,8.555,1.154,11.961,3.411c0.49,0.324,1.114,0.417,1.623,0.123l3.596-1.973   c0.231-0.134,0.493,0.009,0.76,0.009c-0.267,0-0.529-0.145-0.76-0.011l-3.596,1.864c-0.509,0.294-1.133,0.252-1.623-0.073   c-3.406-2.257-7.393-3.39-11.961-3.39c-9.177,0-17.028,4.259-23.252,12.8c-6.208,8.54-9.484,17.784-9.484,27.779   c0,0.009,0,0.017,0,0.026c0-9.983,3.282-19.235,9.484-27.766C775.707,518.689,783.56,514.43,792.736,514.43z"/>
	<path fill="#2D333D" d="M817.634,568.312c-0.06,0.343-0.247,0.663-0.549,0.898c-4.846,3.764-9.612,5.592-14.307,5.592   c-5.315,0-8.136-2.738-8.468-8.046c0.332,5.308,3.153,8.047,8.468,8.047c4.695,0,9.461-1.776,14.307-5.54   C817.395,569.022,817.579,568.677,817.634,568.312z"/>
	<path fill="#2D333D" d="M836.029,522.487c-0.138-0.151-0.312-0.273-0.513-0.357C835.717,522.214,835.891,522.336,836.029,522.487z"/>
	<path fill="#2D333D" d="M836.029,522.487c0.207,0.227,0.331,0.521,0.338,0.853C836.36,523.007,836.236,522.714,836.029,522.487z"/>
	<path fill="#2D333D" d="M808.085,594.465c1.243,0.257,2.413,0.397,3.512,0.397c3.506,0,6.269-1.485,8.288-4.499   c2.018-3.015,3.826-8.149,5.419-15.485l11.019-51.154L825.304,574.8c-1.593,7.336-3.4,12.509-5.419,15.524   c-2.019,3.014-4.782,4.519-8.288,4.519c-1.099,0-2.269-0.129-3.512-0.387c-0.821-0.17-1.627,0.361-1.793,1.183l-0.205,1.016   l0.205-1.013C806.458,594.819,807.264,594.295,808.085,594.465z"/>
	<path fill="#2D333D" d="M827.271,593.909c-3.613,4.063-8.729,6.091-15.355,6.091c-1.584,0-3.195-0.18-4.839-0.536   c-0.719-0.156-1.221-0.781-1.225-1.487c0.002,0.709,0.505,1.34,1.225,1.496c1.644,0.357,3.255,0.547,4.839,0.547   c6.626,0,11.741-2.009,15.355-6.072c3.613-4.056,6.36-10.419,8.235-19.176l11.052-51.684l-11.052,51.606   C833.631,583.45,830.883,589.852,827.271,593.909z"/>
	<path fill="#2D333D" d="M866.468,505.085c-0.849,0.068-1.635-0.609-1.674-1.461c-0.264-5.762-2.12-8.656-5.516-8.656   c-2.656,0-4.732,1.068-6.197,3.267c-1.473,2.199-2.64,5.543-3.49,10.149l-1.061,5.022l1.057-4.905   c0.849-4.606,2.01-8.008,3.483-10.207c1.465-2.199,3.529-3.296,6.185-3.296c3.396,0,5.228,2.88,5.492,8.641   c0.039,0.851,0.872,1.521,1.721,1.453c4.957-0.396,7.532-2.734,7.532-7.01c0-0.001,0-0.001,0-0.002   C874,502.356,871.424,504.689,866.468,505.085z"/>
	<path fill="#2D333D" d="M858.38,515c0.824,0,1.47,0.883,1.515,1.728C859.886,515.875,859.228,515,858.38,515z"/>
	<path fill="#2D333D" d="M862.283,552.416c0-9.497,3.067-18.41,9.192-26.331C877.599,518.163,885.339,514,894.69,514   c-0.001,0-0.002,0-0.003,0c-9.351,0-17.099,4.163-23.223,12.085c-6.125,7.921-9.203,16.733-9.203,26.231   c0,6.984,1.929,12.525,5.823,16.532c3.894,4.006,8.974,6.033,15.312,6.033c0.017,0,0.033,0.011,0.05,0.011   c-6.321-0.008-11.433-2.001-15.319-6C864.233,564.885,862.283,559.401,862.283,552.416z"/>
	<path fill="#2D333D" d="M873.65,550.257c-0.048,0.839-0.093,1.834-0.093,3.038c0,8.651,3.04,13.487,9.173,14.543   c-6.086-1.083-9.13-5.927-9.13-14.539c0-1.203,0.023-2.15,0.072-2.99c0.047-0.812,0.74-1.309,1.552-1.309c-0.001,0-0.002,0-0.002,0   C874.405,549,873.697,549.441,873.65,550.257z"/>
	<path fill="#2D333D" d="M891.762,539.171c4.159-3.118,6.238-7.196,6.238-12.16c0-0.009,0-0.016,0-0.025   C898,531.944,895.917,536.055,891.762,539.171z"/>
	<path fill="#2D333D" d="M894.109,507.937c-0.096,0.028-0.191,0.063-0.289,0.063C893.918,508,894.014,507.973,894.109,507.937z"/>
	<path fill="#2D333D" d="M801.421,523.872c0.086-0.41,0.013-0.849-0.238-1.185c-1.688-2.262-4.31-3.392-7.863-3.392   c-6.201,0-11.392,3.942-15.597,11.829c-4.19,7.888-6.292,15.996-6.292,24.324c0,8.4,2.284,12.6,6.854,12.6   c3.613,0,7.401-2.677,11.37-8.028c3.97-5.351,6.588-11.199,7.863-17.545L801.421,523.872z"/>
	<path fill="#2D333D" d="M462.967,566.709c-0.02,0.788,0.644,1.291,1.513,1.291C463.652,568,463.009,567.459,462.967,566.709z"/>
	<path fill="#2D333D" d="M485.449,502h-7.378c-0.717,0-1.336,0.27-1.485,0.972l-13.591,63.464c-0.02,0.096-0.025,0.185-0.027,0.274   c0.041,0.75,0.684,1.291,1.513,1.291h7.58c10.486,0,18.781-3.865,24.892-11.912c6.11-8.047,9.165-18.317,9.165-31.43   C506.117,509.347,499.228,502,485.449,502z"/>
	<path fill="#2D333D" d="M775.431,342.268c0-52.61-42.726-95.259-95.432-95.259c-52.706,0-95.432,42.65-95.432,95.259   c0,52.611,42.727,95.259,95.432,95.259C732.705,437.528,775.431,394.879,775.431,342.268z M713.584,378.317   C704.909,386.559,691.581,391,673.809,391h-19.621c-3.143,0-6.188-2.551-6.188-5.691v-81.622c0-3.14,3.045-5.687,6.188-5.687   h20.679c16.714,0,29.408,4.228,38.294,12.259c8.886,8.031,13.328,19.445,13.328,33.817   C726.489,358.449,722.258,369.862,713.584,378.317z"/>
	<path fill="#2D333D" d="M891.67,519.614c-3.507,0-6.789,2.357-9.832,6.77c3.044-4.413,6.327-6.694,9.834-6.694   c4.205,0,6.328,2.456,6.328,7.296c0-0.004,0-0.009,0-0.013C898,522.116,895.883,519.614,891.67,519.614z"/>
	<path fill="#2D333D" d="M891.664,519.69c-3.507,0-6.785,2.281-9.829,6.694c-3.043,4.413-5.381,9.616-7.014,17.616h1.062   c6.414,0,11.696-1.712,15.864-4.829c4.155-3.115,6.234-7.227,6.238-12.185C897.978,522.146,895.869,519.69,891.664,519.69z"/>
	<path fill="#2D333D" d="M673.401,313H664v63h11.08c11.123,0,19.728-2.724,25.604-7.976c6.086-5.253,9.024-13.225,8.815-23.52   C709.498,323.494,697.536,313,673.401,313z"/>
</g>
</svg>